<svg width="20" height="5" viewBox="0 0 20 5" fill="none" xmlns="http://www.w3.org/2000/svg">
<path d="M5 2.5C5 3.88071 3.88071 5 2.5 5C1.11929 5 0 3.88071 0 2.5C0 1.11929 1.11929 0 2.5 0C3.88071 0 5 1.11929 5 2.5Z" fill="#202B3C"/>
<path d="M12.5 2.5C12.5 3.88071 11.3807 5 10 5C8.61929 5 7.5 3.88071 7.5 2.5C7.5 1.11929 8.61929 0 10 0C11.3807 0 12.5 1.11929 12.5 2.5Z" fill="#202B3C"/>
<path d="M17.5 5C18.8807 5 20 3.88071 20 2.5C20 1.11929 18.8807 0 17.5 0C16.1193 0 15 1.11929 15 2.5C15 3.88071 16.1193 5 17.5 5Z" fill="#202B3C"/>
</svg>
