<?xml version="1.0" encoding="iso-8859-1"?>
<!-- Generator: Adobe Illustrator 16.0.0, SVG Export Plug-In . SVG Version: 6.00 Build 0)  -->
<!DOCTYPE svg PUBLIC "-//W3C//DTD SVG 1.1//EN" "http://www.w3.org/Graphics/SVG/1.1/DTD/svg11.dtd">
<svg version="1.1" id="Capa_1" xmlns="http://www.w3.org/2000/svg" xmlns:xlink="http://www.w3.org/1999/xlink" x="0px" y="0px"
	 width="482.356px" height="482.356px" viewBox="0 0 482.356 482.356" style="enable-background:new 0 0 482.356 482.356;"
	 xml:space="preserve">
<g>
	<g id="_x31_1_5_">
		<g>
			<path d="M156.777,295.579c-7.682,0-13.91,6.228-13.91,13.912c0,7.684,6.228,13.912,13.91,13.912
				c7.685,0,13.914-6.229,13.914-13.912C170.69,301.806,164.462,295.579,156.777,295.579z"/>
			<path d="M478.281,44.204l-4.918-4.917c-5.434-5.434-14.238-5.432-19.672,0L416.77,76.209h-80.607
				c-7.686,0-13.91,6.226-13.91,13.91v6.955c0,7.683,6.225,13.91,13.91,13.91h31.148l-68.475,164.374l-100.638-61.681
				c-4.514-3.253-9.281-6.175-14.263-8.743l-0.299-0.155c-8.622-4.41-17.897-7.707-27.62-9.799l-20.829-49.222
				c0,0,31.299-5.07,41.007-6.956c9.708-1.884,13.91-6.226,13.91-13.91v-20.285c0-7.682-6.226-13.91-13.91-13.91H44.048
				c-7.683,0-13.91,6.228-13.91,13.91v27.242c0,7.684,6.227,13.91,13.91,13.91h64.971l19.778,46.744
				c-60.816,1.831-109.562,51.67-109.562,112.931c0,49.639,32.014,91.757,76.512,106.935H13.91c-7.684,0-13.91,6.228-13.91,13.909
				v6.956c0,7.682,6.227,13.91,13.91,13.91h372.094c7.682,0,13.91-6.229,13.91-13.91v-6.957c0-7.682-6.229-13.909-13.91-13.909
				H327.08c22.525-10.38,38.168-33.118,38.168-59.553c0-23.456-12.346-43.981-30.854-55.59l0.018-0.064l-14.775-9.058l73.785-177.12
				h31.414c0.098,0,0.186-0.025,0.279-0.029c3.66,0.078,7.342-1.253,10.135-4.046l43.031-43.031
				C483.715,58.444,483.715,49.637,478.281,44.204z M211.259,399.471H126.64c-5.282,0-9.563-4.281-9.563-9.562
				c0-5.283,4.28-9.563,9.563-9.563h16.284v-33.653c-15.093-5.622-25.847-20.148-25.847-37.2c0-21.926,17.774-39.701,39.699-39.701
				c21.928,0,39.703,17.774,39.703,39.701c0,17.034-10.737,31.535-25.805,37.164v33.689h40.585c5.282,0,9.563,4.28,9.563,9.563
				C220.822,395.19,216.541,399.471,211.259,399.471z"/>
		</g>
	</g>
</g>
<g>
</g>
<g>
</g>
<g>
</g>
<g>
</g>
<g>
</g>
<g>
</g>
<g>
</g>
<g>
</g>
<g>
</g>
<g>
</g>
<g>
</g>
<g>
</g>
<g>
</g>
<g>
</g>
<g>
</g>
</svg>
