<?xml version="1.0" encoding="iso-8859-1"?>
<!-- Generator: Adobe Illustrator 16.0.0, SVG Export Plug-In . SVG Version: 6.00 Build 0)  -->
<!DOCTYPE svg PUBLIC "-//W3C//DTD SVG 1.1//EN" "http://www.w3.org/Graphics/SVG/1.1/DTD/svg11.dtd">
<svg version="1.1" id="Capa_1" xmlns="http://www.w3.org/2000/svg" xmlns:xlink="http://www.w3.org/1999/xlink" x="0px" y="0px"
	 width="332.062px" height="332.063px" viewBox="0 0 332.062 332.063" style="enable-background:new 0 0 332.062 332.063;"
	 xml:space="preserve">
<g>
	<g>
		<path d="M327.061,159.368c-0.466-5.621-0.989-11.982-2.01-17.471c-0.709-3.839-2.268-8.951-7.539-8.951
			c-0.528,0-1.057,0.052-1.579,0.106c-0.326,0.031-0.652,0.075-1.186,0.085c-0.011,0-0.182-0.166-0.399-0.797
			c-1.548-4.433-8.041-9.947-16.367-16.691c-2.051-1.655-4.506-3.648-5.552-4.676c0.384-2.656,0.327-5.918-1.522-8.166
			c-0.859-1.049-2.475-2.302-5.261-2.302c-0.409,0-0.844,0.025-1.812,0.111c-2.01,0-6.038-0.826-11.615-1.979
			c-14.38-2.951-41.146-8.45-81.281-9.315c-58.438-1.157-104.359,41.014-106.252,42.79l-1.354,1.258
			c-2.4,1.16-9.979,3.933-33.145,8.487c-32.858,6.47-39.126,16.938-40.31,20.986c-2.623,1.958-6.871,6.628-7.544,12.122
			c-0.541,4.381-1.766,6.173-1.766,6.168L0,181.864v30.924l0.064,0.564c1.781,8.212,10.292,12.557,24.612,12.557
			c4.567,0,7.993-0.466,7.86-0.466c0.199-0.011,1.965-0.041,5.025-0.104c-0.313-0.865-0.598-1.74-0.844-2.636
			c-0.238-0.864-0.456-1.734-0.624-2.625c-0.404-2.098-0.631-4.257-0.631-6.473c0-19.004,15.461-34.466,34.465-34.466
			s34.466,15.462,34.466,34.466c0,1.719-0.168,3.386-0.409,5.038c-0.132,0.896-0.285,1.786-0.487,2.656
			c-0.207,0.901-0.424,1.792-0.699,2.667c43.038-0.922,97.802-2.139,140.216-3.205c-0.187-0.87-0.306-1.751-0.425-2.642
			c-0.119-0.88-0.187-1.76-0.233-2.65c-0.031-0.622-0.093-1.232-0.093-1.864c0-19.004,15.462-34.466,34.465-34.466
			c18.735,0,34,15.037,34.425,33.679c0,0.259,0.041,0.522,0.041,0.787c0,0.668-0.062,1.32-0.104,1.983
			c-0.052,0.942-0.145,1.879-0.269,2.801c8.098-1.336,14.188-5.603,17.714-12.505c6.032-11.801,2.957-27.78,0.792-31.173
			C328.158,172.875,327.578,165.698,327.061,159.368z"/>
		<path d="M43.178,225.215c4.492,10.325,14.768,17.548,26.745,17.548c12.407,0,22.975-7.762,27.19-18.677
			c0.334-0.87,0.632-1.761,0.886-2.672c0.243-0.87,0.445-1.761,0.611-2.662c0.295-1.672,0.481-3.392,0.481-5.151
			c0-16.109-13.054-29.164-29.163-29.164c-16.109,0-29.163,13.055-29.163,29.164c0,2.185,0.259,4.312,0.717,6.363
			c0.194,0.891,0.427,1.766,0.709,2.62C42.479,223.486,42.808,224.355,43.178,225.215z"/>
		<path d="M248.436,220.617c3.148,12.707,14.603,22.146,28.283,22.146c14.302,0,26.176-10.309,28.661-23.892
			c0.16-0.88,0.284-1.766,0.372-2.672c0.078-0.859,0.13-1.719,0.13-2.599c0-0.021,0-0.042,0-0.068
			c-0.031-16.072-13.08-29.096-29.163-29.096c-16.104,0-29.163,13.055-29.163,29.164c0,0.585,0.057,1.154,0.088,1.734
			c0.052,0.896,0.14,1.775,0.274,2.646C248.053,218.872,248.229,219.752,248.436,220.617z"/>
	</g>
</g>
<g>
</g>
<g>
</g>
<g>
</g>
<g>
</g>
<g>
</g>
<g>
</g>
<g>
</g>
<g>
</g>
<g>
</g>
<g>
</g>
<g>
</g>
<g>
</g>
<g>
</g>
<g>
</g>
<g>
</g>
</svg>
