<?xml version="1.0" encoding="iso-8859-1"?>
<!-- Generator: Adobe Illustrator 16.0.0, SVG Export Plug-In . SVG Version: 6.00 Build 0)  -->
<!DOCTYPE svg PUBLIC "-//W3C//DTD SVG 1.1//EN" "http://www.w3.org/Graphics/SVG/1.1/DTD/svg11.dtd">
<svg version="1.1" id="Capa_1" xmlns="http://www.w3.org/2000/svg" xmlns:xlink="http://www.w3.org/1999/xlink" x="0px" y="0px"
	 width="945.405px" height="945.405px" viewBox="0 0 945.405 945.405" style="enable-background:new 0 0 945.405 945.405;"
	 xml:space="preserve">
<g>
	<path d="M615.6,894.153H0v-57.4c11.2,8.9,25.5,14.301,40.9,14.301h532.2L615.6,894.153z M266.4,51.252c-33,0-59.8,26.8-59.8,59.8
		c0,20.5,10.3,38.6,26.1,49.4c6.8-18.8,17.8-36.1,32.4-50.7s31.9-25.6,50.7-32.4C305,61.553,286.9,51.252,266.4,51.252z
		 M249.3,207.953c0,63,51.101,114,114,114c62.9,0,114-51.1,114-114c0-63-51.1-114-114-114c-13.399,0-26.2,2.3-38.1,6.5
		c-32.3,11.5-58,37.1-69.4,69.4C251.6,181.853,249.3,194.652,249.3,207.953z M187.4,365.252c-26.7,59.2-84.9,210.5-100.9,248.6
		h198.6c4.4-10.799,9.301-21.299,14.7-31.199c18.7-34.9,77.101-52.201,63.2-100.9c-0.1-0.4-0.3-0.801-0.4-1.301l52.301,49.602
		c3.899,3.699,8.6,6.699,13.6,8.6l143,54.6c4.8,1.801,9.8,2.699,14.7,2.699c16.6,0,32.2-10.1,38.399-26.5
		c8.101-21.199-2.5-45-23.8-53.1L474.4,468.053c-5.9-2.3-11.301-5.7-15.9-10c0,0-111.3-105.6-111.4-105.7
		c-4.699-4.5-10.8-7.4-17.199-9.5c-1.5-0.5-3.101-1-4.7-1.4c-1.7-0.5-3.5-1-5.3-1.4c-27.801-7.4-58.7-13.7-87.3-11.2
		c-9.4,0.8-19.7,3.2-27.7,8.7C195.7,344.152,191.9,355.353,187.4,365.252z M40.9,826.053h542.6l52,52.699c4.9,5,10.8,8.9,17.1,11.5
		c6.2,2.5,12.801,3.9,19.601,3.9h221.6c28.8,0,52-23.6,51.601-52.4c-0.5-28.301-24.101-50.699-52.4-50.699H693.8L558.4,653.653
		c-10.5-10.701-16.7-15.1-35.5-15.1c-32.4,0-482,0.299-482,0.299c-22.6,0-40.9,18.301-40.9,40.9v94.801v10.6
		C0,807.752,18.3,826.053,40.9,826.053z M871,637.452c0-65.299-53-118.299-118.3-118.299s-118.3,53-118.3,118.299
		c0,65.301,53,118.301,118.3,118.301S871,702.852,871,637.452z"/>
</g>
<g>
</g>
<g>
</g>
<g>
</g>
<g>
</g>
<g>
</g>
<g>
</g>
<g>
</g>
<g>
</g>
<g>
</g>
<g>
</g>
<g>
</g>
<g>
</g>
<g>
</g>
<g>
</g>
<g>
</g>
</svg>
