<?xml version="1.0" encoding="iso-8859-1"?>
<!-- Generator: Adobe Illustrator 16.0.0, SVG Export Plug-In . SVG Version: 6.00 Build 0)  -->
<!DOCTYPE svg PUBLIC "-//W3C//DTD SVG 1.1//EN" "http://www.w3.org/Graphics/SVG/1.1/DTD/svg11.dtd">
<svg version="1.1" id="Capa_1" xmlns="http://www.w3.org/2000/svg" xmlns:xlink="http://www.w3.org/1999/xlink" x="0px" y="0px"
	 width="540.201px" height="540.201px" viewBox="0 0 540.201 540.201" style="enable-background:new 0 0 540.201 540.201;"
	 xml:space="preserve">
<g>
	<g>
		<path d="M169.467,194.102v310.136c0,8.086,2.95,15.08,8.862,20.986c5.808,5.809,12.681,8.732,20.6,8.824
			c7.914-0.092,14.792-3.016,20.606-8.824c5.906-5.906,8.855-12.9,8.855-20.986V194.102c8.862-3.103,42.081-32.711,42.081-42.204
			V27.161c0-4.033-1.481-7.534-4.431-10.49c-2.956-2.95-6.457-4.431-10.49-4.431c-4.045,0-7.54,1.481-10.49,4.431
			c-2.956,2.962-4.431,6.457-4.431,10.49v96.99c0,4.045-1.481,7.54-4.431,10.49c-2.956,2.956-6.451,4.425-10.49,4.425
			c-4.045,0-7.54-1.469-10.49-4.425c-2.95-2.95-4.431-6.451-4.431-10.49v-96.99c0-4.033-1.481-7.534-4.431-10.49
			c-2.95-2.95-6.45-4.431-10.489-4.431c-4.045,0-7.54,1.481-10.49,4.431c-2.956,2.962-4.431,6.457-4.431,10.49v96.99
			c0,4.045-1.481,7.54-4.431,10.49c-2.956,2.956-6.451,4.425-10.49,4.425c-4.045,0-7.54-1.469-10.49-4.425
			c-2.956-2.95-4.431-6.451-4.431-10.49v-96.99c0-4.033-1.475-7.534-4.431-10.49c-2.95-2.95-6.45-4.431-10.49-4.431
			c-4.045,0-7.54,1.481-10.489,4.431c-2.95,2.962-4.431,6.457-4.431,10.49v124.732C121.266,161.384,160.605,190.993,169.467,194.102
			z"/>
		<path d="M199.308,534.08c-0.129,0-0.251-0.037-0.38-0.037c-0.128,0-0.245,0.037-0.379,0.037H199.308z"/>
		<path d="M389.848,540.201c-0.129,0-0.25-0.037-0.379-0.037s-0.252,0.037-0.379,0.037H389.848z"/>
		<path d="M326.139,268.588h33.869v241.771c0,8.084,2.949,15.08,8.855,20.984c5.812,5.809,12.686,8.734,20.605,8.826
			c7.912-0.092,14.791-3.018,20.605-8.826c5.906-5.904,8.861-12.9,8.861-20.984V14.921c0-4.033-1.48-7.534-4.43-10.49
			C411.549,1.481,408.055,0,404.016,0h-10.723c-20.52,0-38.084,7.308-52.693,21.916c-14.607,14.614-21.914,32.179-21.914,52.693
			v186.52c0,2.02,0.74,3.77,2.215,5.245C322.369,267.848,324.119,268.588,326.139,268.588z"/>
	</g>
</g>
<g>
</g>
<g>
</g>
<g>
</g>
<g>
</g>
<g>
</g>
<g>
</g>
<g>
</g>
<g>
</g>
<g>
</g>
<g>
</g>
<g>
</g>
<g>
</g>
<g>
</g>
<g>
</g>
<g>
</g>
</svg>
